<svg width="24" height="24" viewBox="0 0 24 24" fill="none" xmlns="http://www.w3.org/2000/svg">
<rect x="1" y="4" width="22" height="16" rx="2" fill="#1434CB"/>
<path d="M9.5 15H8L6.7 9.3H8.2L9.5 15Z" fill="white"/>
<path d="M15.5 9.4C15.1 9.3 14.6 9.1 14 9.1C12.6 9.1 11.6 9.8 11.6 10.8C11.6 11.6 12.3 12 12.9 12.3C13.5 12.6 13.7 12.8 13.7 13.1C13.7 13.5 13.2 13.7 12.7 13.7C12 13.7 11.6 13.6 11 13.3L10.8 13.2L10.6 14.6C11 14.8 11.7 14.9 12.4 14.9C13.9 14.9 14.9 14.2 14.9 13.1C14.9 12.5 14.5 12 13.7 11.6C13.2 11.3 12.9 11.2 12.9 10.9C12.9 10.7 13.2 10.4 13.8 10.4C14.3 10.4 14.7 10.5 15 10.6L15.1 10.7L15.5 9.4Z" fill="white"/>
<path d="M18 9.3H16.9C16.5 9.3 16.3 9.4 16.1 9.8L14 15H15.5L15.8 14.1H17.6L17.8 15H19.1L18 9.3ZM16.2 13L16.9 11.1L17.3 13H16.2Z" fill="white"/>
<path d="M6.5 9.3L5 13.2L4.9 12.6C4.6 11.7 3.7 10.7 2.7 10.2L4.1 15H5.6L7.9 9.3H6.5Z" fill="white"/>
<path d="M3.8 9.3H1.5L1.5 9.5C3.3 9.9 4.5 11 5 12.3L4.5 9.8C4.4 9.4 4.1 9.3 3.8 9.3Z" fill="#F7A600"/>
</svg>
